<?xml version="1.0" standalone="no"?>
<!DOCTYPE svg PUBLIC "-//W3C//DTD SVG 1.1//EN" "http://www.w3.org/Graphics/SVG/1.1/DTD/svg11.dtd" >
<svg xmlns="http://www.w3.org/2000/svg" xmlns:xlink="http://www.w3.org/1999/xlink" version="1.1">
<metadata></metadata>
<defs>
<font id="gobold_thinregular" horiz-adv-x="1080" >
<font-face units-per-em="2048" ascent="1638" descent="-410" />
<missing-glyph horiz-adv-x="508" />
<glyph horiz-adv-x="0" />
<glyph unicode="&#xd;" horiz-adv-x="508" />
<glyph unicode=" "  horiz-adv-x="508" />
<glyph unicode="&#x09;" horiz-adv-x="508" />
<glyph unicode="&#xa0;" horiz-adv-x="508" />
<glyph unicode="!" horiz-adv-x="515" d="M120 -4v274h275v-274h-275zM120 1966h275l-22 -1466h-231z" />
<glyph unicode="&#x22;" horiz-adv-x="855" d="M120 1944h241l-32 -614h-177zM494 1944h241l-32 -614h-177z" />
<glyph unicode="#" horiz-adv-x="1330" d="M80 752v96h206l65 329h-227v96h247l138 694h181l-138 -694h318l138 694h182l-138 -694h198v-96h-218l-65 -329h239v-96h-259l-150 -756h-181l150 756h-318l-150 -756h-182l150 756h-186zM467 848h319l65 329h-318z" />
<glyph unicode="$" horiz-adv-x="1020" d="M120 393v241h231v-241q0 -169 159 -169q158 0 158 169v231q0 163 -287 368q-261 188 -261 453v191q0 344 300 391v179h179v-179q301 -47 301 -391v-243h-232v243q0 168 -157 169h-2q-158 0 -158 -169v-185q0 -152 288 -357q261 -187 261 -445v-256q0 -345 -301 -392v-244 h-179v244q-300 48 -300 392z" />
<glyph unicode="%" horiz-adv-x="1599" d="M125 1081v730q0 219 217 219q215 0 215 -219v-730q0 -219 -215 -219q-217 0 -217 219zM235 1081q0 -111 107 -111q105 0 105 111v730q0 112 -105 112h-3q-104 0 -104 -112v-730zM372 -5l726 1971h115l-725 -1971h-116zM1042 215v730q0 219 215 219q217 0 217 -219v-730 q0 -219 -217 -219h-2q-213 0 -213 219zM1152 215q0 -112 105 -112q107 0 107 112v730q0 112 -106 112h-2q-104 0 -104 -112v-730z" />
<glyph unicode="&#x26;" horiz-adv-x="1157" d="M120 392v339q0 181 197 283q-197 101 -197 282v306q0 368 299 394q44 3 90 3q38 0 78 -2q313 -21 313 -395v-56h-231v56q0 151 -98 167q-28 4 -58 4q-26 0 -54 -3q-108 -13 -108 -168v-306q0 -118 99 -158q26 -10 59 -12h160v139h231v-139h187v-226h-187v-508 q0 -380 -327 -395q-34 -1 -67 -1q-61 0 -106 5q-280 34 -280 391zM351 392q0 -130 64 -156q30 -14 92 -14q14 0 29 1q133 5 133 169v508h-160q-33 -1 -59 -12q-99 -38 -99 -157v-339z" />
<glyph unicode="'" horiz-adv-x="481" d="M120 1944h241l-32 -614h-177z" />
<glyph unicode="(" horiz-adv-x="496" d="M120 137v1690q0 391 346 396v-179q-115 -3 -115 -169v-1787q0 -165 115 -168v-180q-346 5 -346 397z" />
<glyph unicode=")" horiz-adv-x="496" d="M30 -80q115 3 115 168v1787q0 166 -115 169v179q346 -5 346 -396v-1690q0 -392 -346 -397v180z" />
<glyph unicode="*" horiz-adv-x="978" d="M120 1680q0 23 10 54q24 79 72 79q24 0 56 -17q58 -30 211 -145q-73 184 -81 246q-1 10 -1 21q0 76 100 77h4q98 0 98 -71q0 -15 -3 -30q-11 -66 -75 -248q155 128 213 155q28 13 50 13q46 0 73 -78q11 -32 11 -57q0 -57 -77 -68q-15 -2 -34 -2q-70 0 -221 8 q166 -119 208 -164q31 -34 31 -62q0 -37 -53 -76q-44 -32 -75 -32q-37 0 -65 56q-30 60 -82 253q-53 -203 -84 -258q-28 -50 -65 -50q-30 0 -73 30q-56 39 -56 75q0 29 36 66q47 46 211 161q-157 -10 -226 -10q-25 0 -40 3q-73 14 -73 71z" />
<glyph unicode="+" horiz-adv-x="1014" d="M120 892v179h298v297h179v-297h297v-179h-297v-297h-179v297h-298z" />
<glyph unicode="," horiz-adv-x="541" d="M120 31v275h301v-262l-103 -352h-130l60 339h-128z" />
<glyph unicode="-" horiz-adv-x="749" d="M50 868v179h649v-179h-649z" />
<glyph unicode="." horiz-adv-x="515" d="M120 1v275h275v-275h-275z" />
<glyph unicode="/" horiz-adv-x="695" d="M60 -4l393 1971h182l-393 -1971h-182z" />
<glyph unicode="0" horiz-adv-x="1020" d="M120 359v1244q0 396 390 396t390 -396v-1244q0 -395 -390 -395t-390 395zM351 359q0 -168 159 -168t159 168v1244q0 168 -158 168h-2q-158 0 -158 -168v-1244z" />
<glyph unicode="1" horiz-adv-x="1040" d="M130 -4v227h275v1516h-275v227h506v-1743h274v-227h-780z" />
<glyph unicode="2" horiz-adv-x="1040" d="M130 -5v405q0 259 260 446q288 204 289 357v399q0 169 -157 169h-2q-159 0 -159 -169v-241h-231v241q0 397 390 397t390 -397v-406q0 -264 -261 -452q-288 -205 -288 -369v-153h549v-227h-780z" />
<glyph unicode="3" horiz-adv-x="1040" d="M130 359v243h231v-243q0 -168 160 -168q158 0 158 168v335q3 164 -173 173h-111v228h113q174 27 171 199v309q0 168 -158 168q-160 0 -160 -168v-243h-231v243q0 395 391 396q389 0 389 -396v-319q0 -205 -197 -307q197 -101 197 -283v-335q0 -396 -389 -396 q-391 1 -391 396z" />
<glyph unicode="4" horiz-adv-x="1046" d="M52 494v220l503 1252h323v-1245h113v-227h-113v-498h-231v498h-595zM264 721h383v971z" />
<glyph unicode="5" horiz-adv-x="1040" d="M130 359v210h231v-210q0 -168 159 -168t159 168v578q0 128 -64 155q-30 15 -92 15q-15 0 -30 -1q-114 -5 -129 -108l-2 -54h-231l41 1023h738v-227h-516l-26 -556q102 136 239 143q15 0 33 -3q140 -12 211 -110q59 -81 59 -277v-578q0 -395 -390 -395t-390 395z" />
<glyph unicode="6" horiz-adv-x="1040" d="M130 359v1244q0 396 390 396t390 -396v-242h-231v242q0 168 -158 168h-2q-158 0 -158 -168v-564q125 112 233 112q21 0 42 -2q129 -14 201 -90q73 -80 73 -296v-404q0 -395 -390 -395t-390 395zM361 359q0 -168 159 -168t159 168v404q0 130 -64 157q-30 13 -92 13 q-15 0 -30 -1q-132 -5 -132 -169v-404z" />
<glyph unicode="7" horiz-adv-x="1041" d="M121 1739v227h805v-174l-404 -1796h-237l391 1743h-555z" />
<glyph unicode="8" horiz-adv-x="1040" d="M130 359v335q0 182 197 283q-197 102 -197 283v343q0 395 391 396q389 0 389 -396v-343q0 -181 -197 -283q197 -101 197 -283v-335q0 -396 -389 -396q-391 1 -391 396zM361 359q0 -168 160 -168q158 0 158 168v333q3 173 -159 173t-159 -173v-333zM361 1260 q-3 -167 132 -172q16 -1 32 -1q61 0 92 12q65 30 62 161v343q0 168 -158 168q-160 0 -160 -168v-343z" />
<glyph unicode="9" horiz-adv-x="1040" d="M130 359v243h231v-243q0 -167 159 -168h2q157 0 157 168v565q-126 -113 -236 -113q-19 0 -38 2q-130 14 -201 90q-74 81 -74 296v404q0 395 391 396q389 0 389 -396v-1244q0 -395 -390 -395t-390 395zM361 1199q0 -129 64 -157q30 -12 90 -12q15 0 30 1q134 4 134 168 v404q0 168 -158 168q-160 0 -160 -168v-404z" />
<glyph unicode=":" horiz-adv-x="514" d="M120 7v275h274v-275h-274zM120 1048v274h274v-274h-274z" />
<glyph unicode=";" horiz-adv-x="541" d="M120 13v275h301v-263l-103 -351h-130l60 339h-128zM120 1054v274h275v-274h-275z" />
<glyph unicode="&#x3c;" horiz-adv-x="1014" d="M120 842v264l774 434v-213l-642 -350l642 -341v-213z" />
<glyph unicode="=" horiz-adv-x="1014" d="M120 652v178h774v-178h-774zM120 1131v179h774v-179h-774z" />
<glyph unicode="&#x3e;" horiz-adv-x="1014" d="M120 423v213l642 341l-642 350v213l774 -434v-264z" />
<glyph unicode="?" horiz-adv-x="1020" d="M120 1361v241q0 397 391 397q389 0 389 -397v-204q0 -246 -197 -441q-215 -215 -215 -380v-77h-231v102q0 241 197 436q215 213 215 367v197q0 169 -157 169h-2q-159 0 -159 -169v-241h-231zM240 -5v275h275v-275h-275z" />
<glyph unicode="@" horiz-adv-x="1465" d="M130 581v830q0 599 603 599q602 0 602 -585v-80h-1v-113q0 -251 -246 -251h-144v-387q0 -251 -246 -251t-246 251v266q0 250 246 250h116v302q0 121 -115 121h-2q-114 0 -114 -121v-41h-131v41q0 250 246 250t246 -250v-302h144q115 0 115 122v193q0 458 -470 458 q-471 0 -471 -472v-830q0 -458 471 -458q470 0 470 471v13h132v-13q0 -598 -602 -598q-603 0 -603 585zM566 594q0 -122 115 -122q116 0 116 122v387l-116 1q-115 0 -115 -122v-266z" />
<glyph unicode="A" horiz-adv-x="1016" d="M40 -4l90 682l203 1288h349l202 -1284l92 -686h-235l-57 431h-353l-58 -431h-233zM360 655h294l-147 1113z" />
<glyph unicode="B" horiz-adv-x="1010" d="M130 -4v1970h421q359 -1 359 -397v-305q0 -181 -197 -283q197 -102 197 -283v-306q0 -395 -379 -396h-401zM361 223h160q158 0 158 169v306q0 119 -99 158q-28 11 -96 11h-123v-644zM361 1095h123q67 0 96 10q99 41 99 159v305q0 170 -158 170h-160v-644z" />
<glyph unicode="C" horiz-adv-x="990" d="M110 359v1244q0 395 390 395t390 -395v-243h-231v243q0 167 -158 168h-2q-158 0 -158 -168v-1244q0 -168 159 -168t159 168v243h231v-243q0 -395 -390 -396q-390 0 -390 396z" />
<glyph unicode="D" horiz-adv-x="1020" d="M130 -4v1970h421q359 -1 359 -397v-1177q0 -395 -379 -396h-401zM361 223h160q158 0 158 169v1177q0 170 -158 170h-160v-1516z" />
<glyph unicode="E" horiz-adv-x="908" d="M130 -4v1970h698v-227h-467v-644h402v-228h-402v-644h467v-227h-698z" />
<glyph unicode="F" horiz-adv-x="888" d="M130 -4v1970h698v-227h-467v-644h402v-228h-402v-871h-231z" />
<glyph unicode="G" horiz-adv-x="1000" d="M110 359v1244q0 395 390 395t390 -395v-243h-231v243q0 167 -158 168h-2q-158 0 -158 -168v-1244q0 -168 159 -168t159 168v508h-148v228h379v-736q0 -395 -390 -396q-390 0 -390 396z" />
<glyph unicode="H" horiz-adv-x="1040" d="M130 -4v1970h231v-871h318v871h231v-1970h-231v871h-318v-871h-231z" />
<glyph unicode="I" horiz-adv-x="501" d="M135 -4v1970h231v-1970h-231z" />
<glyph unicode="J" horiz-adv-x="940" d="M30 360v89h231v-89q0 -169 160 -169q158 0 158 169v1607h231v-1607q0 -397 -389 -397q-391 1 -391 397z" />
<glyph unicode="K" horiz-adv-x="1012" d="M130 -4v1970h231v-927l365 927h246l-389 -985l389 -985h-246l-365 923v-923h-231z" />
<glyph unicode="L" horiz-adv-x="868" d="M130 -4v1970h231v-1743h467v-227h-698z" />
<glyph unicode="M" horiz-adv-x="1470" d="M130 -4v1970h238l369 -1491l366 1491h237v-1970h-219v1395l-306 -1395h-149l-314 1388v-1388h-222z" />
<glyph unicode="N" horiz-adv-x="1040" d="M130 -4v1970h237l334 -1415v1411l209 3v-1969h-237l-323 1380v-1380h-220z" />
<glyph unicode="O" horiz-adv-x="1000" d="M110 359v1244q0 395 390 395t390 -395v-1244q0 -395 -390 -396q-390 0 -390 396zM341 359q0 -168 159 -168t159 168v1244q0 167 -158 168h-2q-158 0 -158 -168v-1244z" />
<glyph unicode="P" horiz-adv-x="965" d="M130 -4v1970h396q359 -1 359 -397v-305q0 -292 -259 -376q-63 -21 -186 -21h-79v-871h-231zM361 1095h98q67 0 96 10q99 41 99 159v305q0 170 -158 170h-135v-644z" />
<glyph unicode="Q" horiz-adv-x="1000" d="M110 365v1243q0 396 390 396t390 -396v-1243q0 -355 -323 -395q9 -124 323 -126v-183q-222 0 -312 48q-110 56 -113 260q-355 26 -355 396zM341 365q0 -169 159 -169t159 169v1243q0 168 -158 169h-2q-158 0 -158 -169v-1243z" />
<glyph unicode="R" horiz-adv-x="1001" d="M130 -4v1970h396q359 -1 359 -397v-305q0 -247 -239 -335l325 -933h-255l-265 897l-90 -12v-885h-231zM361 1095h98q67 0 96 10q99 41 99 159v305q0 170 -158 170h-135v-644z" />
<glyph unicode="S" horiz-adv-x="1000" d="M110 359v243h231v-243q0 -168 160 -168q158 0 158 168v232q0 163 -288 369q-261 187 -261 452v191q0 395 390 395t390 -395v-243h-231v243q0 167 -158 168h-2q-158 0 -158 -168v-185q0 -151 288 -357q261 -187 261 -445v-257q0 -396 -389 -396q-391 1 -391 396z" />
<glyph unicode="T" horiz-adv-x="880" d="M50 1739v227h780v-227h-274v-1743h-231v1743h-275z" />
<glyph unicode="U" horiz-adv-x="1020" d="M120 360v1607h231v-1607q0 -169 159 -169t159 169v1607h231v-1607q0 -396 -390 -397q-390 0 -390 397z" />
<glyph unicode="V" horiz-adv-x="1016" d="M40 1966h233l234 -1772l234 1772h235l-92 -686l-202 -1284h-349l-203 1286z" />
<glyph unicode="W" horiz-adv-x="1721" d="M40 1966h232l235 -1772l234 1772h237l235 -1772l234 1772h234l-91 -686l-202 -1284h-348l-179 1236l-179 -1236h-349l-203 1286z" />
<glyph unicode="X" horiz-adv-x="965" d="M40 -4l327 985l-327 985h230l212 -639l213 639h230l-328 -985l328 -985h-230l-213 639l-212 -639h-230z" />
<glyph unicode="Y" horiz-adv-x="1018" d="M40 1966h244l224 -889l225 889h245l-354 -1141v-829h-231v829z" />
<glyph unicode="Z" horiz-adv-x="844" d="M80 -4v141l407 1602h-394v227h653v-141l-407 -1602h425v-227h-684z" />
<glyph unicode="[" horiz-adv-x="499" d="M130 -260v2483h339v-178h-160v-2126h160v-179h-339z" />
<glyph unicode="\" horiz-adv-x="695" d="M60 1967h182l393 -1971h-182z" />
<glyph unicode="]" horiz-adv-x="499" d="M30 -81h160v2126h-160v178h339v-2483h-339v179z" />
<glyph unicode="^" horiz-adv-x="1096" d="M100 1189l337 773h223l336 -773h-195l-253 582l-252 -582h-196z" />
<glyph unicode="_" horiz-adv-x="1007" d="M0 -134h1007v-157h-1007v157z" />
<glyph unicode="`" horiz-adv-x="663" d="M130 2000v31h186l217 -199h-141z" />
<glyph unicode="a" horiz-adv-x="1016" d="M40 -4l90 601l203 1133h349l202 -1131l92 -603h-235l-57 379h-353l-58 -379h-233zM360 576h294l-147 980z" />
<glyph unicode="b" horiz-adv-x="1010" d="M130 -4v1734h421q359 -1 359 -349v-269q0 -160 -197 -249q197 -90 197 -249v-270q0 -347 -379 -348h-401zM361 195h160q158 0 158 149v270q0 105 -99 138q-28 10 -96 10h-123v-567zM361 963h123q67 0 96 9q99 36 99 140v269q0 149 -158 149h-160v-567z" />
<glyph unicode="c" horiz-adv-x="990" d="M110 312v1094q0 348 390 348t390 -348v-214h-231v214q0 148 -158 148h-2q-158 0 -158 -148v-1094q0 -149 159 -149t159 149v213h231v-213q0 -348 -390 -349q-390 0 -390 349z" />
<glyph unicode="d" horiz-adv-x="1020" d="M130 -4v1734h421q359 -1 359 -349v-1037q0 -347 -379 -348h-401zM361 195h160q158 0 158 149v1037q0 149 -158 149h-160v-1335z" />
<glyph unicode="e" horiz-adv-x="908" d="M130 -4v1734h698v-200h-467v-567h402v-201h-402v-567h467v-199h-698z" />
<glyph unicode="f" horiz-adv-x="888" d="M130 -4v1734h698v-200h-467v-567h402v-201h-402v-766h-231z" />
<glyph unicode="g" horiz-adv-x="1000" d="M110 312v1094q0 348 390 348t390 -348v-214h-231v214q0 148 -158 148h-2q-158 0 -158 -148v-1094q0 -149 159 -149t159 149v447h-148v200h379v-647q0 -348 -390 -349q-390 0 -390 349z" />
<glyph unicode="h" horiz-adv-x="1040" d="M130 -4v1734h231v-767h318v767h231v-1734h-231v766h-318v-766h-231z" />
<glyph unicode="i" horiz-adv-x="501" d="M135 -4v1734h231v-1734h-231z" />
<glyph unicode="j" horiz-adv-x="940" d="M30 312v79h231v-79q0 -148 160 -148q158 0 158 148v1414h231v-1414q0 -349 -389 -349q-391 1 -391 349z" />
<glyph unicode="k" horiz-adv-x="1012" d="M130 -4v1734h231v-816l365 816h246l-389 -867l389 -867h-246l-365 812v-812h-231z" />
<glyph unicode="l" horiz-adv-x="868" d="M130 -4v1734h231v-1535h467v-199h-698z" />
<glyph unicode="m" horiz-adv-x="1470" d="M130 -4v1734h238l369 -1312l366 1312h237v-1734h-219v1228l-306 -1228h-149l-314 1221v-1221h-222z" />
<glyph unicode="n" horiz-adv-x="1040" d="M130 -4v1734h237l334 -1246v1242l209 3v-1733h-237l-323 1214v-1214h-220z" />
<glyph unicode="o" horiz-adv-x="1000" d="M110 312v1094q0 348 390 348t390 -348v-1094q0 -348 -390 -349q-390 0 -390 349zM341 312q0 -149 159 -149t159 149v1094q0 148 -158 148h-2q-158 0 -158 -148v-1094z" />
<glyph unicode="p" horiz-adv-x="965" d="M130 -4v1734h396q359 -1 359 -349v-269q0 -257 -259 -331q-63 -19 -186 -19h-79v-766h-231zM361 963h98q67 0 96 9q99 36 99 140v269q0 149 -158 149h-135v-567z" />
<glyph unicode="q" horiz-adv-x="1000" d="M110 280v1094q0 349 390 349t390 -349v-1094q0 -311 -323 -347q9 -109 323 -111v-161q-222 0 -312 42q-110 49 -113 229q-355 23 -355 348zM341 280q0 -148 159 -148t159 148v1094q0 148 -158 149h-2q-158 0 -158 -149v-1094z" />
<glyph unicode="r" horiz-adv-x="1001" d="M130 -4v1734h396q359 -1 359 -349v-269q0 -217 -239 -295l325 -821h-255l-265 789l-90 -11v-778h-231zM361 963h98q67 0 96 9q99 36 99 140v269q0 149 -158 149h-135v-567z" />
<glyph unicode="s" horiz-adv-x="1000" d="M110 312v213h231v-213q0 -149 160 -149q158 0 158 149v204q0 143 -288 325q-261 164 -261 397v168q0 348 390 348t390 -348v-214h-231v214q0 148 -158 148h-2q-158 0 -158 -148v-162q0 -134 288 -315q261 -164 261 -391v-226q0 -349 -389 -349q-391 1 -391 349z" />
<glyph unicode="t" horiz-adv-x="880" d="M50 1530v200h780v-200h-274v-1534h-231v1534h-275z" />
<glyph unicode="u" horiz-adv-x="1020" d="M120 312v1414h231v-1414q0 -148 159 -148t159 148v1414h231v-1414q0 -348 -390 -349q-390 0 -390 349z" />
<glyph unicode="v" horiz-adv-x="1016" d="M40 1730h233l234 -1560l234 1560h235l-92 -604l-202 -1130h-349l-203 1132z" />
<glyph unicode="w" horiz-adv-x="1721" d="M40 1730h232l235 -1560l234 1560h237l235 -1560l234 1560h234l-91 -604l-202 -1130h-348l-179 1087l-179 -1087h-349l-203 1132z" />
<glyph unicode="x" horiz-adv-x="965" d="M40 -4l327 867l-327 867h230l212 -563l213 563h230l-328 -867l328 -867h-230l-213 562l-212 -562h-230z" />
<glyph unicode="y" horiz-adv-x="1018" d="M40 1730h244l224 -782l225 782h245l-354 -1005v-729h-231v729z" />
<glyph unicode="z" horiz-adv-x="844" d="M80 -4v124l407 1410h-394v200h653v-124l-407 -1411h425v-199h-684z" />
<glyph unicode="{" horiz-adv-x="501" d="M10 891v181q115 3 115 168v587q0 391 346 396v-179q-115 -3 -115 -169v-586q0 -195 -91 -307q91 -113 91 -308v-586q0 -165 115 -168v-180q-346 5 -346 397v586q0 166 -115 168z" />
<glyph unicode="|" horiz-adv-x="458" d="M140 -343v2649h178v-2649h-178z" />
<glyph unicode="}" horiz-adv-x="501" d="M30 -80q115 3 115 168v586q0 195 91 308q-91 112 -91 307v586q0 166 -115 169v179q346 -5 346 -396v-587q0 -165 115 -168v-181q-115 -2 -115 -168v-586q0 -392 -346 -397v180z" />
<glyph unicode="~" horiz-adv-x="1045" d="M100 947l39 61q94 145 214 145h10q81 -5 214 -104q78 -59 134 -59q48 0 77 36l44 57l113 -90l-44 -56q-84 -107 -188 -107h-11q-81 5 -211 103q-88 66 -112 70q-8 2 -17 2q-52 0 -101 -76l-39 -60z" />
<glyph unicode="&#xa1;" horiz-adv-x="575" d="M120 -237l22 1466h231l22 -1466h-275zM120 1459v274h275v-274h-275z" />
<glyph unicode="&#xa2;" horiz-adv-x="1030" d="M120 319v1095q0 346 390 346q126 0 243 -48l77 249l80 -6l-90 -296q80 -96 80 -245v-209h-218l-302 -988q54 -50 130 -50q159 0 159 152v210h231v-210q0 -345 -390 -345q-96 0 -196 28l-104 -338l-80 5l112 369q-122 96 -122 281zM351 393l318 1040q-15 133 -158 134 q-160 0 -160 -153v-1021z" />
<glyph unicode="&#xa3;" horiz-adv-x="1100" d="M60 -5v227h40q160 0 160 170v554h-200v102h200v554q0 397 389 397q391 0 391 -397v-241h-231v241q0 169 -158 169h-3q-157 0 -157 -169v-554h343v-102h-343v-410q0 -174 -90 -314h557v-227h-898z" />
<glyph unicode="&#xa4;" horiz-adv-x="1351" d="M130 560l164 162q-8 64 -8 122v276q0 49 6 104l-162 161l133 133l102 -103q113 102 311 102q197 0 311 -102l102 103l132 -133l-162 -161q8 -56 8 -104v-276q0 -57 -10 -122l164 -162l-132 -133l-112 112q-114 -91 -301 -91q-189 0 -302 90l-110 -112zM517 844 q0 -169 159 -169q160 0 160 169v276q0 168 -159 169h-2q-158 0 -158 -169v-276z" />
<glyph unicode="&#xa5;" horiz-adv-x="1138" d="M100 1966h244l224 -887l225 887h245l-315 -1021h233v-102h-272v-227h272v-102h-272v-518h-231v518h-271v102h271v227h-271v102h233z" />
<glyph unicode="&#xa6;" horiz-adv-x="458" d="M140 0v750h178v-750h-178zM140 1021v708h178v-708h-178z" />
<glyph unicode="&#xa7;" horiz-adv-x="1020" d="M120 911q0 261 231 351q-231 154 -231 405q0 338 386 338q369 0 369 -338v-73h-231v73q0 150 -147 150q-146 0 -146 -150q0 -204 290 -369q259 -146 259 -462q0 -270 -299 -339q299 -184 299 -472q0 -363 -387 -363q-369 0 -369 363v79h231v-79q0 -159 148 -159 q145 0 145 159q0 216 -289 392q-259 155 -259 494zM333 856q0 -180 169 -180q170 0 170 180v42q0 179 -169 181h-2q-168 0 -168 -181v-42z" />
<glyph unicode="&#xa8;" horiz-adv-x="860" d="M130 1833v188h189v-188h-189zM540 1833v188h190v-188h-190z" />
<glyph unicode="&#xa9;" horiz-adv-x="1445" d="M120 581v830q0 599 602 599q603 0 603 -585v-831q0 -598 -603 -598q-602 0 -602 585zM252 581q0 -458 470 -458q471 0 471 471v831q0 458 -470 458q-471 0 -471 -472v-830zM475 590v826q0 253 249 253q250 0 250 -253v-48h-134v48q0 123 -115 124q-117 0 -117 -124v-826 q0 -124 116 -124t116 124v47h134v-47q0 -254 -250 -254q-249 0 -249 254z" />
<glyph unicode="&#xaa;" horiz-adv-x="711" d="M60 945l57 344l132 668h214l131 -667l57 -345h-133l-37 229h-251l-38 -229h-132zM62 526v138h579v-138h-579zM244 1264h221l-111 626z" />
<glyph unicode="&#xab;" horiz-adv-x="1322" d="M130 1002l499 455v-257l-249 -211l249 -205v-246zM619 1002l499 455v-257l-249 -211l249 -205v-246z" />
<glyph unicode="&#xac;" horiz-adv-x="1034" d="M130 897v179h774v-476h-178v297h-596z" />
<glyph unicode="&#xad;" horiz-adv-x="749" d="M50 868v179h649v-179h-649z" />
<glyph unicode="&#xae;" horiz-adv-x="1445" d="M120 581v830q0 599 602 599q603 0 603 -585v-831q0 -598 -603 -598q-602 0 -602 585zM252 581q0 -458 470 -458q471 0 471 471v831q0 458 -470 458q-471 0 -471 -472v-830zM470 358v1290l257 -1h13q228 0 228 -252v-204q0 -114 -144 -188q144 -74 144 -189v-456h-132v456 q0 85 -73 115q-20 9 -68 9h-92v-580h-133zM603 1068h92q48 0 68 9q73 29 73 114v204q0 123 -116 123h-117v-450z" />
<glyph unicode="&#xaf;" horiz-adv-x="1189" d="M0 1779v157h1189v-157h-1189z" />
<glyph unicode="&#xb0;" horiz-adv-x="837" d="M130 1741q0 288 288 288q289 0 289 -288q0 -289 -289 -289q-288 0 -288 289zM257 1741q0 -162 161 -162q162 0 162 162q0 161 -162 161q-161 0 -161 -161z" />
<glyph unicode="&#xb1;" horiz-adv-x="1014" d="M120 169v158h772v-158h-772zM120 899v180h298v297h179v-297h297v-180h-297v-297h-179v297h-298z" />
<glyph unicode="&#xb2;" horiz-adv-x="629" d="M100 841v224q0 144 146 250q173 122 174 218v232q0 112 -105 112h-1q-105 0 -105 -112v-127h-109v127q0 219 214 219q215 0 215 -219v-236q0 -148 -147 -254q-173 -123 -173 -225v-102h320v-107h-429z" />
<glyph unicode="&#xb3;" horiz-adv-x="634" d="M100 1038v130h109v-131q0 -114 108 -114t108 114v219q0 85 -45 106q-22 9 -58 9h-28v107h41q32 0 52 12q38 23 38 100v179q0 84 -45 106q-22 9 -60 9q-11 0 -20 -2q-91 -3 -91 -113v-129h-109v130q0 155 84 197q63 34 129 34q63 0 128 -29q93 -41 93 -202v-181 q0 -99 -130 -167q130 -67 130 -166v-218q0 -140 -67 -188q-44 -30 -141 -34h-15q-87 0 -132 27q-79 45 -79 195z" />
<glyph unicode="&#xb4;" horiz-adv-x="663" d="M130 1832l217 199h186v-31l-262 -168h-141z" />
<glyph unicode="&#xb5;" horiz-adv-x="1030" d="M130 -331v1970h231v-1269q0 -168 159 -168t159 169v1268h231v-1268q0 -358 -302 -391q-19 -3 -36 -3q-87 0 -211 81v-389h-231z" />
<glyph unicode="&#xb6;" horiz-adv-x="1142" d="M100 1322v367q0 190 62 240q49 38 233 38h617v-1971h-146v1825h-294v-1825h-146v1058q-221 0 -267 34q-59 44 -59 234z" />
<glyph unicode="&#xb7;" horiz-adv-x="516" d="M117 718v234h234v-234h-234z" />
<glyph unicode="&#xb8;" horiz-adv-x="584" d="M169 -223h75q0 -56 64 -56q63 0 63 57v60q0 58 -60 61h-3q-48 0 -57 -22h-72l24 123h69l-28 -92q53 31 97 31q8 0 18 -2q49 -7 68 -31t19 -68v-60q0 -93 -98 -101q-17 -2 -39 -2q-12 0 -23 1q-117 3 -117 101z" />
<glyph unicode="&#xb9;" horiz-adv-x="1028" d="M130 841v104h159v902h-159v104h265v-1006h159v-104h-424z" />
<glyph unicode="&#xba;" horiz-adv-x="734" d="M120 1106v656q0 195 247 195t247 -195v-656q0 -195 -247 -195t-247 195zM130 511v119h473v-119h-473zM252 1106q0 -105 115 -105q116 0 116 105v656q0 104 -115 105q-116 0 -116 -105v-656z" />
<glyph unicode="&#xbb;" horiz-adv-x="1322" d="M130 538v246l250 205l-250 211v257l499 -455zM619 538v246l250 205l-250 211v257l499 -455z" />
<glyph unicode="&#xbc;" horiz-adv-x="1597" d="M120 856v104h159v902h-159v104h265v-1006h159v-104h-424zM464 -4l726 1971h115l-725 -1971h-116zM985 282v109l284 708h163v-714h65v-103h-65v-286h-106v286h-341zM1074 385h252v639z" />
<glyph unicode="&#xbd;" horiz-adv-x="1678" d="M60 856v104h159v902h-159v104h265v-1006h159v-104h-424zM404 -4l726 1971h115l-725 -1971h-116zM1149 -4v224q0 144 146 249q173 122 174 219v232q0 112 -105 112h-1q-105 0 -105 -112v-128h-109v128q0 218 214 218q215 0 215 -218v-236q0 -148 -147 -254 q-173 -123 -173 -225v-103h320v-106h-429z" />
<glyph unicode="&#xbe;" horiz-adv-x="1535" d="M100 1053v129h109v-130q0 -114 108 -114t108 114v218q0 85 -45 107q-22 8 -58 8h-28v108h41q32 0 52 11q38 23 38 101v178q0 85 -45 107q-22 8 -60 8q-11 0 -20 -1q-91 -3 -91 -114v-128h-109v129q0 155 84 198q63 33 129 33q63 0 128 -29q93 -40 93 -202v-180 q0 -100 -130 -167q130 -67 130 -167v-217q0 -140 -67 -189q-44 -30 -141 -33h-15q-87 0 -132 27q-79 44 -79 195zM403 -5l726 1971h115l-725 -1971h-116zM924 281v110l283 707h163v-714h65v-103h-65v-286h-106v286h-340zM1013 384h251v640z" />
<glyph unicode="&#xbf;" d="M120 127v204q0 246 197 441q215 215 215 380v77h231v-102q0 -241 -197 -436q-215 -213 -215 -367v-197q0 -169 157 -169h2q159 0 159 169v241h231v-241q0 -397 -391 -397q-389 0 -389 397zM505 1459v275h275v-275h-275z" />
<glyph unicode="&#xc0;" horiz-adv-x="1124" d="M60 -4l90 682l203 1288h349l202 -1284l92 -686h-235l-57 431h-353l-58 -431h-233zM220 2233v31h186l217 -199h-141zM380 655h294l-147 1113z" />
<glyph unicode="&#xc1;" horiz-adv-x="1124" d="M60 -4l90 682l203 1288h349l202 -1284l92 -686h-235l-57 431h-353l-58 -431h-233zM380 655h294l-147 1113zM431 2065l217 199h186v-31l-262 -168h-141z" />
<glyph unicode="&#xc2;" horiz-adv-x="1124" d="M60 -4l90 682l203 1288h349l202 -1284l92 -686h-235l-57 431h-353l-58 -431h-233zM201 2066l202 198h249l203 -198h-177l-151 102l-150 -102h-176zM380 655h294l-147 1113z" />
<glyph unicode="&#xc3;" horiz-adv-x="1124" d="M60 -4l90 682l203 1288h349l202 -1284l92 -686h-235l-57 431h-353l-58 -431h-233zM213 2090l23 46q61 124 153 129h6q61 0 163 -63q61 -39 104 -39q45 0 71 39l26 42l83 -55l-27 -44q-58 -93 -139 -97h-6q-60 0 -161 64q-73 46 -95 49h-7q-48 0 -85 -73l-22 -45zM380 655 h294l-147 1113z" />
<glyph unicode="&#xc4;" horiz-adv-x="1124" d="M60 -4l90 682l203 1288h349l202 -1284l92 -686h-235l-57 431h-353l-58 -431h-233zM228 2066v188h189v-188h-189zM380 655h294l-147 1113zM638 2066v188h190v-188h-190z" />
<glyph unicode="&#xc5;" horiz-adv-x="1056" d="M60 -10l90 683l203 1287h66q-66 91 -66 168q0 174 174 174q175 0 175 -174q0 -77 -66 -168h66l202 -1284l92 -686h-235l-57 431h-353l-58 -431h-233zM380 649h294l-147 1113zM413 2128q0 -115 114 -115q115 0 115 115q0 114 -115 114q-114 0 -114 -114z" />
<glyph unicode="&#xc6;" horiz-adv-x="1456" d="M60 -4l90 682l203 1288h910v-227h-467v-644h402v-228h-402v-644h467v-227h-698v431h-214l-58 -431h-233zM380 655h185v832l-38 280z" />
<glyph unicode="&#xc7;" horiz-adv-x="990" d="M110 359v1244q0 395 390 395t390 -395v-243h-231v243q0 167 -158 168h-2q-158 0 -158 -168v-1244q0 -168 159 -168t159 168v243h231v-243q0 -395 -390 -396q-24 0 -46 1l-17 -56q53 31 97 31q8 0 18 -2q49 -7 68 -31t19 -68v-60q0 -93 -98 -101q-17 -2 -39 -2 q-12 0 -23 1q-117 3 -117 101h75q0 -56 64 -56q63 0 63 57v60q0 58 -60 61h-3q-48 0 -57 -22h-72l19 95q-281 51 -281 387z" />
<glyph unicode="&#xc8;" horiz-adv-x="968" d="M130 -4v1970h698v-227h-467v-644h402v-228h-402v-644h467v-227h-698zM171 2233v31h186l217 -199h-141z" />
<glyph unicode="&#xc9;" horiz-adv-x="968" d="M130 -4v1970h698v-227h-467v-644h402v-228h-402v-644h467v-227h-698zM384 2065l217 199h186v-31l-262 -168h-141z" />
<glyph unicode="&#xca;" horiz-adv-x="968" d="M108 -4v1970h698v-227h-467v-644h402v-228h-402v-644h467v-227h-698zM130 2066l202 198h249l203 -198h-177l-151 102l-150 -102h-176z" />
<glyph unicode="&#xcb;" horiz-adv-x="968" d="M130 -4v1970h698v-227h-467v-644h402v-228h-402v-644h467v-227h-698zM180 2066v188h189v-188h-189zM590 2066v188h190v-188h-190z" />
<glyph unicode="&#xcc;" horiz-adv-x="564" d="M-54 2233v31h186l217 -199h-141zM138 -4v1970h231v-1970h-231z" />
<glyph unicode="&#xcd;" horiz-adv-x="564" d="M111 -4v1970h231v-1970h-231zM131 2065l217 199h186v-31l-262 -168h-141z" />
<glyph unicode="&#xce;" horiz-adv-x="576" d="M-112 2066l202 198h249l203 -198h-177l-151 102l-150 -102h-176zM100 -4v1970h231v-1970h-231z" />
<glyph unicode="&#xcf;" horiz-adv-x="574" d="M-43 2066v188h189v-188h-189zM141 -4v1970h231v-1970h-231zM367 2066v188h190v-188h-190z" />
<glyph unicode="&#xd0;" horiz-adv-x="1087" d="M58 903v157h128v906l421 -1q360 0 360 -396v-1177q0 -395 -360 -395q-7 0 -20 -1h-401v907h-128zM417 223h160q159 0 159 169v1177q0 170 -159 170h-160v-679h102v-157h-102v-680z" />
<glyph unicode="&#xd1;" horiz-adv-x="1100" d="M130 -4v1970h237l334 -1415v1411l209 3v-1969h-237l-323 1380v-1380h-220zM206 2090l23 46q61 124 153 129h6q61 0 163 -63q61 -39 104 -39q45 0 71 39l26 42l83 -55l-27 -44q-58 -93 -139 -97h-6q-60 0 -161 64q-73 46 -95 49h-7q-48 0 -85 -73l-22 -45z" />
<glyph unicode="&#xd2;" d="M120 359v1244q0 395 390 395t390 -395v-1244q0 -395 -390 -396q-390 0 -390 396zM203 2233v31h186l217 -199h-141zM351 359q0 -168 159 -168t159 168v1244q0 167 -158 168h-2q-158 0 -158 -168v-1244z" />
<glyph unicode="&#xd3;" d="M120 359v1244q0 395 390 395t390 -395v-1244q0 -395 -390 -396q-390 0 -390 396zM351 359q0 -168 159 -168t159 168v1244q0 167 -158 168h-2q-158 0 -158 -168v-1244zM415 2065l217 199h186v-31l-262 -168h-141z" />
<glyph unicode="&#xd4;" d="M120 359v1244q0 395 390 395t390 -395v-1244q0 -395 -390 -396q-390 0 -390 396zM183 2066l202 198h249l203 -198h-177l-151 102l-150 -102h-176zM351 359q0 -168 159 -168t159 168v1244q0 167 -158 168h-2q-158 0 -158 -168v-1244z" />
<glyph unicode="&#xd5;" d="M120 359v1244q0 395 390 395t390 -395v-1244q0 -395 -390 -396q-390 0 -390 396zM196 2090l23 46q61 124 153 129h6q61 0 163 -63q61 -39 104 -39q45 0 71 39l26 42l83 -55l-27 -44q-58 -93 -139 -97h-6q-60 0 -161 64q-73 46 -95 49h-7q-48 0 -85 -73l-22 -45zM351 359 q0 -168 159 -168t159 168v1244q0 167 -158 168h-2q-158 0 -158 -168v-1244z" />
<glyph unicode="&#xd6;" d="M120 359v1244q0 395 390 395t390 -395v-1244q0 -395 -390 -396q-390 0 -390 396zM210 2066v188h189v-188h-189zM351 359q0 -168 159 -168t159 168v1244q0 167 -158 168h-2q-158 0 -158 -168v-1244zM620 2066v188h190v-188h-190z" />
<glyph unicode="&#xd7;" horiz-adv-x="985" d="M156 772l211 210l-210 210l126 127l211 -211l209 211l126 -128l-210 -209l210 -210l-126 -127l-210 210l-210 -211z" />
<glyph unicode="&#xd8;" horiz-adv-x="1020" d="M120 361v1243q0 396 390 396q87 0 184 -27l34 138h82l-44 -177q134 -108 134 -330v-1243q0 -396 -390 -397q-104 0 -211 37l-54 -217h-80l64 265q-109 110 -109 312zM351 553l283 1172q-55 48 -123 48h-2q-158 0 -158 -169v-1051zM364 276q45 -84 146 -84q159 0 159 169 v1169z" />
<glyph unicode="&#xd9;" d="M120 360v1607h231v-1607q0 -169 159 -169t159 169v1607h231v-1607q0 -396 -390 -397q-390 0 -390 397zM203 2233v31h186l217 -199h-141z" />
<glyph unicode="&#xda;" d="M120 360v1607h231v-1607q0 -169 159 -169t159 169v1607h231v-1607q0 -396 -390 -397q-390 0 -390 397zM415 2065l217 199h186v-31l-262 -168h-141z" />
<glyph unicode="&#xdb;" d="M120 360v1607h231v-1607q0 -169 159 -169t159 169v1607h231v-1607q0 -396 -390 -397q-390 0 -390 397zM183 2066l202 198h249l203 -198h-177l-151 102l-150 -102h-176z" />
<glyph unicode="&#xdc;" d="M120 360v1607h231v-1607q0 -169 159 -169t159 169v1607h231v-1607q0 -396 -390 -397q-390 0 -390 397zM210 2066v188h189v-188h-189zM620 2066v188h190v-188h-190z" />
<glyph unicode="&#xdd;" horiz-adv-x="1139" d="M60 1966h244l224 -889l225 889h245l-354 -1141v-829h-231v829zM433 2065l217 199h186v-31l-262 -168h-141z" />
<glyph unicode="&#xde;" horiz-adv-x="984" d="M130 -337v2309h231v-339h126q6 0 18 -1h21q358 0 358 -395v-306q0 -292 -258 -376q-64 -21 -187 -21h-78v-871h-231zM361 761h97q68 0 97 11q98 41 98 159v306q0 169 -158 169h-134v-645z" />
<glyph unicode="&#xdf;" horiz-adv-x="1020" d="M130 0v1574q0 396 390 396t390 -396v-306q0 -182 -199 -283q199 -101 199 -283v-526q0 -395 -357 -395v226q126 0 126 169v526q0 118 -99 158q-29 12 -97 12h-122v-872h-231zM361 1099h122q68 0 97 11q99 38 99 158v306q0 168 -158 169h-2q-158 0 -158 -169v-475z" />
<glyph unicode="&#xe0;" horiz-adv-x="1123" d="M60 -4l90 601l203 1133h349l202 -1131l92 -603h-235l-57 379h-353l-58 -379h-233zM219 2000v31h186l217 -199h-141zM380 576h294l-147 980z" />
<glyph unicode="&#xe1;" horiz-adv-x="1123" d="M60 -4l90 601l203 1133h349l202 -1131l92 -603h-235l-57 379h-353l-58 -379h-233zM380 576h294l-147 980zM431 1832l217 199h186v-31l-262 -168h-141z" />
<glyph unicode="&#xe2;" horiz-adv-x="1123" d="M60 -4l90 601l203 1133h349l202 -1131l92 -603h-235l-57 379h-353l-58 -379h-233zM200 1833l202 198h249l203 -198h-177l-151 102l-150 -102h-176zM380 576h294l-147 980z" />
<glyph unicode="&#xe3;" horiz-adv-x="1123" d="M60 -4l90 601l203 1133h349l202 -1131l92 -603h-235l-57 379h-353l-58 -379h-233zM212 1857l23 46q61 124 153 129h6q61 0 163 -63q61 -39 104 -39q45 0 71 39l26 42l83 -55l-27 -44q-58 -93 -139 -97h-6q-60 0 -161 64q-73 46 -95 49h-7q-48 0 -85 -73l-22 -45zM380 576 h294l-147 980z" />
<glyph unicode="&#xe4;" horiz-adv-x="1123" d="M60 -4l90 601l203 1133h349l202 -1131l92 -603h-235l-57 379h-353l-58 -379h-233zM227 1833v188h189v-188h-189zM380 576h294l-147 980zM637 1833v188h190v-188h-190z" />
<glyph unicode="&#xe5;" horiz-adv-x="1053" d="M60 -6l90 597l202 1132h66q-66 91 -66 168q0 174 174 174q175 0 175 -174q0 -77 -66 -168h67l202 -1129l89 -600h-233l-57 381h-353l-58 -381h-232zM378 568h296l-148 984zM412 1891q0 -115 114 -115q115 0 115 115q0 114 -115 114q-114 0 -114 -114z" />
<glyph unicode="&#xe6;" horiz-adv-x="1545" d="M60 0l90 597l202 1132h911v-193h-467v-575h402v-192h-402v-576h467v-193h-698v381h-215l-58 -381h-232zM378 574h187v728l-39 257z" />
<glyph unicode="&#xe7;" horiz-adv-x="990" d="M110 312v1094q0 348 390 348t390 -348v-214h-231v214q0 148 -158 148h-2q-158 0 -158 -148v-1094q0 -149 159 -149t159 149v213h231v-213q0 -348 -390 -349q-24 0 -46 1l-17 -56q53 31 97 31q8 0 18 -2q49 -7 68 -31t19 -68v-60q0 -93 -98 -101q-17 -2 -39 -2 q-12 0 -23 1q-117 3 -117 101h75q0 -56 64 -56q63 0 63 57v60q0 58 -60 61h-3q-48 0 -57 -22h-72l18 94q-280 45 -280 341z" />
<glyph unicode="&#xe8;" horiz-adv-x="948" d="M130 -4v1734h698v-200h-467v-567h402v-201h-402v-567h467v-199h-698zM171 2000v31h186l217 -199h-141z" />
<glyph unicode="&#xe9;" horiz-adv-x="948" d="M130 -4v1734h698v-200h-467v-567h402v-201h-402v-567h467v-199h-698zM384 1832l217 199h186v-31l-262 -168h-141z" />
<glyph unicode="&#xea;" horiz-adv-x="948" d="M108 -4v1734h698v-200h-467v-567h402v-201h-402v-567h467v-199h-698zM130 1833l202 198h249l203 -198h-177l-151 102l-150 -102h-176z" />
<glyph unicode="&#xeb;" horiz-adv-x="948" d="M130 -4v1734h698v-200h-467v-567h402v-201h-402v-567h467v-199h-698zM180 1833v188h189v-188h-189zM590 1833v188h190v-188h-190z" />
<glyph unicode="&#xec;" horiz-adv-x="525" d="M-54 2000v31h186l217 -199h-141zM138 0v1729h231v-1729h-231z" />
<glyph unicode="&#xed;" horiz-adv-x="525" d="M111 0v1729h231v-1729h-231zM131 1832l217 199h186v-31l-262 -168h-141z" />
<glyph unicode="&#xee;" horiz-adv-x="537" d="M-112 1833l202 198h249l203 -198h-177l-151 102l-150 -102h-176zM100 0v1729h231v-1729h-231z" />
<glyph unicode="&#xef;" horiz-adv-x="535" d="M-43 1833v188h189v-188h-189zM141 0v1729h231v-1729h-231zM367 1833v188h190v-188h-190z" />
<glyph unicode="&#xf0;" horiz-adv-x="1020" d="M120 393v378q0 375 333 375q98 0 216 -94q0 330 -123 524l-226 -191l-104 122l217 183q-103 63 -196 99l54 173q176 -52 301 -140l167 141l103 -122l-154 -129q192 -254 192 -657v-662q0 -397 -389 -397q-391 0 -391 397zM351 393q0 -169 160 -169q158 0 158 169v378 q0 163 -131 169q-17 1 -32 1q-61 0 -91 -13q-64 -28 -64 -157v-378z" />
<glyph unicode="&#xf1;" horiz-adv-x="1100" d="M130 -4v1734h237l334 -1246v1242l209 3v-1733h-237l-323 1214v-1214h-220zM206 1857l23 46q61 124 153 129h6q61 0 163 -63q61 -39 104 -39q45 0 71 39l26 42l83 -55l-27 -44q-58 -93 -139 -97h-6q-60 0 -161 64q-73 46 -95 49h-7q-48 0 -85 -73l-22 -45z" />
<glyph unicode="&#xf2;" d="M120 312v1094q0 348 390 348t390 -348v-1094q0 -348 -390 -349q-390 0 -390 349zM203 2000v31h186l217 -199h-141zM351 312q0 -149 159 -149t159 149v1094q0 148 -158 148h-2q-158 0 -158 -148v-1094z" />
<glyph unicode="&#xf3;" d="M120 312v1094q0 348 390 348t390 -348v-1094q0 -348 -390 -349q-390 0 -390 349zM351 312q0 -149 159 -149t159 149v1094q0 148 -158 148h-2q-158 0 -158 -148v-1094zM415 1832l217 199h186v-31l-262 -168h-141z" />
<glyph unicode="&#xf4;" d="M120 312v1094q0 348 390 348t390 -348v-1094q0 -348 -390 -349q-390 0 -390 349zM183 1833l202 198h249l203 -198h-177l-151 102l-150 -102h-176zM351 312q0 -149 159 -149t159 149v1094q0 148 -158 148h-2q-158 0 -158 -148v-1094z" />
<glyph unicode="&#xf5;" d="M120 312v1094q0 348 390 348t390 -348v-1094q0 -348 -390 -349q-390 0 -390 349zM196 1857l23 46q61 124 153 129h6q61 0 163 -63q61 -39 104 -39q45 0 71 39l26 42l83 -55l-27 -44q-58 -93 -139 -97h-6q-60 0 -161 64q-73 46 -95 49h-7q-48 0 -85 -73l-22 -45zM351 312 q0 -149 159 -149t159 149v1094q0 148 -158 148h-2q-158 0 -158 -148v-1094z" />
<glyph unicode="&#xf6;" d="M120 312v1094q0 348 390 348t390 -348v-1094q0 -348 -390 -349q-390 0 -390 349zM210 1833v188h189v-188h-189zM351 312q0 -149 159 -149t159 149v1094q0 148 -158 148h-2q-158 0 -158 -148v-1094zM620 1833v188h190v-188h-190z" />
<glyph unicode="&#xf7;" horiz-adv-x="1072" d="M120 893v180h772v-180h-772zM369 326v275h274v-275h-274zM369 1367v274h274v-274h-274z" />
<glyph unicode="&#xf8;" horiz-adv-x="1009" d="M119 319v1095q0 346 390 346q126 0 243 -48l76 249l80 -6l-89 -295q80 -96 80 -246v-1095q0 -345 -390 -345q-96 0 -197 28l-104 -338l-80 5l113 369q-122 97 -122 281zM350 397l318 1039q-18 130 -158 131q-160 0 -160 -153v-1017zM378 218q55 -51 131 -51 q159 0 159 152v849z" />
<glyph unicode="&#xf9;" d="M120 312v1414h231v-1414q0 -148 159 -148t159 148v1414h231v-1414q0 -348 -390 -349q-390 0 -390 349zM203 2000v31h186l217 -199h-141z" />
<glyph unicode="&#xfa;" d="M120 312v1414h231v-1414q0 -148 159 -148t159 148v1414h231v-1414q0 -348 -390 -349q-390 0 -390 349zM415 1832l217 199h186v-31l-262 -168h-141z" />
<glyph unicode="&#xfb;" d="M120 312v1414h231v-1414q0 -148 159 -148t159 148v1414h231v-1414q0 -348 -390 -349q-390 0 -390 349zM183 1833l202 198h249l203 -198h-177l-151 102l-150 -102h-176z" />
<glyph unicode="&#xfc;" d="M120 312v1414h231v-1414q0 -148 159 -148t159 148v1414h231v-1414q0 -348 -390 -349q-390 0 -390 349zM210 1833v188h189v-188h-189zM620 1833v188h190v-188h-190z" />
<glyph unicode="&#xfd;" horiz-adv-x="1138" d="M60 1730h244l224 -782l225 782h245l-354 -1005v-729h-231v729zM431 1832l217 199h186v-31l-262 -168h-141z" />
<glyph unicode="&#xfe;" horiz-adv-x="976" d="M130 -337v2309h231v-339h126q6 0 18 -1h21q358 0 358 -395v-306q0 -292 -258 -376q-64 -21 -187 -21h-78v-871h-231zM361 761h97q68 0 97 11q98 41 98 159v306q0 169 -158 169h-134v-645z" />
<glyph unicode="&#xff;" horiz-adv-x="1138" d="M60 1730h244l224 -782l225 782h245l-354 -1005v-729h-231v729zM228 1833v188h189v-188h-189zM638 1833v188h190v-188h-190z" />
<glyph unicode="&#x2c6;" horiz-adv-x="985" d="M166 1833l202 198h249l203 -198h-177l-151 102l-150 -102h-176z" />
<glyph unicode="&#x2dc;" horiz-adv-x="889" d="M130 1857l23 46q61 124 153 129h6q61 0 163 -63q61 -39 104 -39q45 0 71 39l26 42l83 -55l-27 -44q-58 -93 -139 -97h-6q-60 0 -161 64q-73 46 -95 49h-7q-48 0 -85 -73l-22 -45z" />
<glyph unicode="&#x2000;" horiz-adv-x="1153" />
<glyph unicode="&#x2001;" horiz-adv-x="2306" />
<glyph unicode="&#x2002;" horiz-adv-x="1153" />
<glyph unicode="&#x2003;" horiz-adv-x="2306" />
<glyph unicode="&#x2004;" horiz-adv-x="768" />
<glyph unicode="&#x2005;" horiz-adv-x="576" />
<glyph unicode="&#x2006;" horiz-adv-x="384" />
<glyph unicode="&#x2007;" horiz-adv-x="384" />
<glyph unicode="&#x2008;" horiz-adv-x="288" />
<glyph unicode="&#x2009;" horiz-adv-x="461" />
<glyph unicode="&#x200a;" horiz-adv-x="128" />
<glyph unicode="&#x2010;" horiz-adv-x="749" d="M50 868v179h649v-179h-649z" />
<glyph unicode="&#x2011;" horiz-adv-x="749" d="M50 868v179h649v-179h-649z" />
<glyph unicode="&#x2012;" horiz-adv-x="749" d="M50 868v179h649v-179h-649z" />
<glyph unicode="&#x2013;" horiz-adv-x="1148" d="M50 868v179h1036v-179h-1036z" />
<glyph unicode="&#x2014;" horiz-adv-x="2057" d="M50 868v179h1972v-179h-1972z" />
<glyph unicode="&#x2018;" horiz-adv-x="507" d="M130 1330v263l103 351h130l-60 -339h127v-275h-300z" />
<glyph unicode="&#x2019;" horiz-adv-x="560" d="M130 1669v275h300v-263l-102 -351h-131l60 339h-127z" />
<glyph unicode="&#x201a;" horiz-adv-x="507" d="M120 31v275h301v-262l-103 -352h-130l60 339h-128z" />
<glyph unicode="&#x201c;" horiz-adv-x="1057" d="M130 1330v263l103 351h130l-60 -339h127v-275h-300zM620 1330v263l103 351h130l-60 -339h127v-275h-300z" />
<glyph unicode="&#x201d;" horiz-adv-x="1110" d="M130 1669v275h300v-263l-102 -351h-131l60 339h-127zM620 1669v275h300v-263l-102 -351h-131l60 339h-127z" />
<glyph unicode="&#x201e;" horiz-adv-x="1110" d="M130 32v275h300v-263l-102 -351h-131l60 339h-127zM620 32v275h300v-263l-102 -351h-131l60 339h-127z" />
<glyph unicode="&#x2022;" horiz-adv-x="951" d="M130 983q0 144 100 244q102 102 245 102q144 0 246 -102q100 -100 100 -244q0 -143 -100 -245q-102 -100 -246 -100q-143 0 -245 100q-100 102 -100 245z" />
<glyph unicode="&#x2026;" horiz-adv-x="2058" d="M120 1v275h275v-275h-275zM803 1v275h275v-275h-275zM1486 1v275h275v-275h-275z" />
<glyph unicode="&#x202f;" horiz-adv-x="461" />
<glyph unicode="&#x2039;" horiz-adv-x="759" d="M130 1002l499 455v-257l-249 -211l249 -205v-246z" />
<glyph unicode="&#x203a;" horiz-adv-x="759" d="M130 538v246l250 205l-250 211v257l499 -455z" />
<glyph unicode="&#x205f;" horiz-adv-x="576" />
<glyph unicode="&#x20ac;" horiz-adv-x="1066" d="M30 765v102h146v228h-146v101h146v407q0 396 390 396t390 -396v-242h-231v242q0 168 -158 168h-2q-158 0 -158 -168v-407h396v-101h-396v-228h396v-102h-396v-406q0 -168 159 -168t159 168v243h231v-243q0 -395 -390 -395t-390 395v406h-146z" />
<glyph unicode="&#x2122;" horiz-adv-x="1081" d="M60 1658v54h317v-54h-123v-697h-71v697h-123zM494 962v751h77l179 -642l177 642h78v-751h-64v680l-168 -680h-43l-171 672v-672h-65z" />
<glyph unicode="&#x25fc;" horiz-adv-x="1730" d="M0 0v1730h1730v-1730h-1730z" />
</font>
</defs>
</svg>
